<svg width="276" height="85" viewBox="0 0 276 85" fill="none" xmlns="http://www.w3.org/2000/svg">
<path d="M106.276 15.164C107.76 15.164 108.74 16.144 108.74 17.628V33H110.504V17.656C110.504 16.144 111.512 15.164 112.996 15.164H115.6V13.4H103.784V15.164H106.276ZM123.878 33H125.642V13.4H123.878V33ZM144.37 27.008C144.37 27.652 144.258 27.988 144.062 27.988C143.894 27.988 143.67 27.736 143.418 27.232L136.166 13.4H134.402V33H136.166V19.392C136.166 18.748 136.278 18.412 136.446 18.412C136.614 18.412 136.838 18.664 137.118 19.168L144.37 33H146.106V13.4H144.37V27.008ZM156.553 30.508C157.225 27.904 159.465 26.168 162.153 26.168C164.925 26.168 167.165 27.904 167.837 30.508L168.481 33H170.413L165.345 13.4H159.073L154.005 33H155.937L156.553 30.508ZM160.109 16.76C160.361 15.808 161.201 15.164 162.181 15.164C163.217 15.164 164.057 15.808 164.309 16.76L165.849 22.808C166.101 23.788 165.597 24.432 164.589 24.432H159.801C158.793 24.432 158.289 23.788 158.541 22.808L160.109 16.76Z" fill="white"/>
<path d="M51.64 46.48C51.64 44.12 53.24 42.52 55.6 42.52C58.08 42.52 59.68 44.12 59.68 46.48V68H62.36V46.48C62.36 44.12 63.92 42.52 66.32 42.52C68.8 42.52 70.4 44.12 70.4 46.48V68H72.88V40H49.12V68H51.64V46.48ZM90.1747 68H92.6947V40H90.1747V68ZM112.46 46.48C112.46 44.12 114.06 42.52 116.42 42.52C118.9 42.52 120.5 44.12 120.5 46.48V68H123.18V46.48C123.18 44.12 124.74 42.52 127.14 42.52C129.62 42.52 131.22 44.12 131.22 46.48V68H133.7V40H109.94V68H112.46V46.48ZM150.995 68H153.515V40H150.995V68ZM173.241 58.72C173.241 57.08 174.361 56 176.001 56H179.841C181.481 56 182.561 57.08 182.561 58.72V68H185.081V53.48H177.801C176.161 53.48 175.721 52.64 176.721 51.32L185.041 40.08H181.721L174.841 49.64C174.401 50.2 174.041 50.52 173.801 50.52C173.441 50.52 173.241 50.04 173.241 49.12V40H170.761V67.8H173.241V58.72ZM205.221 64.44C206.181 60.72 209.381 58.24 213.221 58.24C217.181 58.24 220.381 60.72 221.341 64.44L222.261 68H225.021L217.781 40H208.821L201.581 68H204.341L205.221 64.44ZM210.301 44.8C210.661 43.44 211.861 42.52 213.261 42.52C214.741 42.52 215.941 43.44 216.301 44.8L218.501 53.44C218.861 54.84 218.141 55.76 216.701 55.76H209.861C208.421 55.76 207.701 54.84 208.061 53.44L210.301 44.8Z" fill="white"/>
<path d="M232.471 81.8586C209.726 80.878 178.258 80 138.5 80C98.3492 80 66.455 80.8954 43.4387 81.8876C32.6636 82.3521 27.3814 82.5753 23.6151 81.7403C12.5167 79.2799 4.43707 71.541 1.50095 60.5589C0.504497 56.8318 0.5 51.7676 0.5 41.4324C0.5 33.6743 0.503484 29.8806 1.37305 26.3862C3.75978 16.795 11.6384 8.39446 21.0569 5.39818C24.489 4.30635 28.0424 4.07489 35.3136 3.60811C59.2226 2.07324 94.4687 0.5 138.5 0.5C182.283 0.5 217.12 2.05552 240.766 3.58209C247.989 4.0484 251.519 4.2796 254.949 5.37154C264.354 8.36563 272.246 16.7838 274.628 26.3618C275.497 29.8542 275.5 33.6298 275.5 41.3513C275.5 51.723 275.496 56.8053 274.5 60.5311C271.56 71.5292 263.497 79.2529 252.382 81.7158C250.513 82.1299 248.246 82.285 245.078 82.2752C241.91 82.2654 237.873 82.0915 232.471 81.8586Z" stroke="white"/>
<circle cx="21" cy="42" r="4" fill="white"/>
<circle cx="251" cy="42" r="4" fill="white"/>
</svg>
